<?xml version="1.0" encoding="utf-8"?>
<!-- Generator: Adobe Illustrator 16.0.0, SVG Export Plug-In . SVG Version: 6.00 Build 0)  -->
<!DOCTYPE svg PUBLIC "-//W3C//DTD SVG 1.1//EN" "http://www.w3.org/Graphics/SVG/1.1/DTD/svg11.dtd">
<svg version="1.1" id="Layer_1" xmlns="http://www.w3.org/2000/svg" xmlns:xlink="http://www.w3.org/1999/xlink" x="0px" y="0px"
	 width="205px" height="205px" viewBox="0 0 205 205" enable-background="new 0 0 205 205" xml:space="preserve">
<g>
	<path fill="none" stroke="#000000" stroke-miterlimit="10" d="M202.5,102.499c0,55.231-44.771,100.002-100,100.002
		c-55.227,0-100-44.771-100-100.002c0-55.226,44.773-100,100-100C157.729,2.499,202.5,47.273,202.5,102.499z"/>
	<path d="M102.5,26.506c-41.969,0-75.996,34.022-75.996,75.992c0,41.971,34.027,75.993,75.996,75.993
		c41.968,0,75.996-34.022,75.996-75.993C178.496,60.528,144.467,26.506,102.5,26.506z M125.595,139.216H91.999H78.595v-75h15.514
		h31.486v13h-32v19h24v12h-24v18h32V139.216z"/>
	<g>
		<path d="M55.381,30.772c1.287,1.795,0.909,4.197-0.93,5.515l-2.059,1.473l-4.563-6.376l2.057-1.474
			C51.729,28.593,54.125,29.013,55.381,30.772z M54.361,31.501c-0.864-1.211-2.408-1.636-3.803-0.638l-1.049,0.751l3.208,4.481
			l1.048-0.749C55.16,34.35,55.255,32.751,54.361,31.501z"/>
		<path d="M63.958,28.995l0.561,0.996l-3.283,1.852l-0.877,0.496l-3.849-6.819l1.074-0.604l2.998-1.694l0.561,0.993l-3.001,1.694
			l1.081,1.907l2.307-1.302l0.548,0.973l-2.307,1.305l1.101,1.948L63.958,28.995z"/>
		<path d="M69.474,20.736l-0.631,0.85c-0.623-0.45-1.244-0.616-1.91-0.325c-0.668,0.29-0.968,0.886-0.733,1.418
			c0.216,0.503,0.668,0.672,1.468,0.629l0.583-0.036c1.654-0.1,2.649,0.199,3.121,1.275c0.576,1.321-0.361,2.611-1.583,3.144
			c-1.249,0.546-2.578,0.237-3.333-0.646l0.687-0.835c0.543,0.544,1.329,0.835,2.199,0.455c0.719-0.313,1.146-0.952,0.864-1.598
			c-0.299-0.687-0.879-0.762-1.834-0.712l-0.573,0.03c-1.252,0.07-2.247-0.141-2.735-1.26c-0.475-1.086,0.161-2.314,1.431-2.87
			C67.672,19.741,68.813,20.146,69.474,20.736z"/>
		<path d="M76.304,24.986l-1.162,0.402l-2.556-7.396l1.163-0.401L76.304,24.986z"/>
		<path d="M83.292,23.078c-2.089,0.514-4.313-0.647-4.876-2.955c-0.568-2.306,0.909-4.376,2.953-4.877
			c0.978-0.241,1.939-0.13,2.757,0.279l-0.527,1.008c-0.568-0.253-1.244-0.329-1.876-0.176c-1.479,0.364-2.468,1.83-2.068,3.462
			c0.4,1.631,1.913,2.482,3.361,2.128c1.206-0.296,1.96-1.07,1.867-2.442l-2.033,0.5l-0.257-1.033l3.147-0.774
			C86.588,20.631,85.302,22.584,83.292,23.078z"/>
		<path d="M95.469,13.093l0.88,7.781l-0.933,0.106l-4.975-5.058l0.626,5.547l-1.222,0.139l-0.88-7.779l0.945-0.108l4.962,5.067
			l-0.629-5.558L95.469,13.093z"/>
		<path d="M110.332,21.053l-1.8-3.063l-2.204,2.782l-1.45-0.104l3.001-3.79l-2.362-4.012l1.452,0.104l1.712,2.9l2.078-2.635
			l1.45,0.104l-2.877,3.642l2.45,4.173L110.332,21.053z"/>
		<path d="M123.89,23.645c-2.036-0.533-3.494-2.624-2.896-4.925c0.602-2.297,2.896-3.413,4.932-2.88
			c0.976,0.254,1.77,0.81,2.292,1.559l-0.942,0.633c-0.379-0.492-0.937-0.882-1.565-1.045c-1.476-0.385-3.057,0.432-3.479,2.058
			c-0.425,1.624,0.557,3.107,2.031,3.491c0.639,0.169,1.34,0.096,1.918-0.17l0.511,1.025C125.85,23.808,124.875,23.9,123.89,23.645z
			"/>
		<path d="M137.854,24.285c-0.874,2.207-3.272,3.036-5.23,2.263c-1.958-0.777-3.137-3.026-2.262-5.231
			c0.875-2.206,3.275-3.038,5.23-2.262C137.548,19.828,138.729,22.078,137.854,24.285z M136.668,23.815
			c0.618-1.561-0.161-3.147-1.504-3.68c-1.342-0.531-2.998,0.09-3.616,1.651c-0.618,1.561,0.163,3.146,1.506,3.677
			C134.396,25.997,136.049,25.376,136.668,23.815z"/>
		<path d="M146.81,29.033c-1.068,1.926-3.396,2.616-5.371,1.523l-2.207-1.228l3.793-6.844l2.209,1.224
			C147.209,24.806,147.856,27.146,146.81,29.033z M145.714,28.425c0.722-1.3,0.442-2.873-1.053-3.702l-1.126-0.623l-2.665,4.811
			l1.124,0.623C143.49,30.363,144.973,29.765,145.714,28.425z"/>
		<path d="M152.126,36.006l-0.658,0.933l-3.085-2.172l-0.821-0.578l4.507-6.407l1.008,0.709l2.817,1.983l-0.656,0.935l-2.82-1.983
			l-1.262,1.793l2.17,1.525l-0.646,0.915l-2.167-1.526l-1.286,1.83L152.126,36.006z"/>
		<path d="M180.023,72.852l-1.053,0.439l-1.456-3.481l-0.389-0.927l7.229-3.026l0.478,1.136l1.329,3.183l-1.052,0.439l-1.333-3.18
			l-2.023,0.847l1.023,2.448l-1.03,0.43l-1.026-2.445l-2.065,0.862L180.023,72.852z"/>
		<path d="M181.401,80.759l2.084-2.554l-0.035-0.128l-0.404-1.34l-2.617,0.784l-0.353-1.179l7.507-2.255l0.753,2.519
			c0.508,1.685-0.214,3.023-1.661,3.458c-1.05,0.314-2.018,0.011-2.657-0.826l-2.237,2.787L181.401,80.759z M184.073,76.428
			l0.387,1.284c0.287,0.955,0.928,1.453,1.86,1.172c0.935-0.279,1.193-1.049,0.907-2.001l-0.387-1.287L184.073,76.428z"/>
		<path d="M182.661,86.122l-0.257-1.203l7.671-1.624l0.257,1.206L182.661,86.122z"/>
		<path d="M183.668,93.299c-0.252-2.092,1.163-4.211,3.519-4.494c2.355-0.284,4.232,1.442,4.482,3.531
			c0.12,1-0.104,1.94-0.609,2.699l-0.935-0.641c0.319-0.536,0.478-1.196,0.397-1.843c-0.182-1.511-1.517-2.682-3.183-2.48
			c-1.669,0.201-2.689,1.653-2.509,3.165c0.08,0.655,0.402,1.281,0.862,1.724l-0.768,0.848
			C184.234,95.181,183.791,94.309,183.668,93.299z"/>
		<path d="M190.96,106.07l-2.253-0.111l-0.141,2.889l-1.051-0.053l0.141-2.889l-3.412-0.168l0.06-1.265l7.837,0.385l-0.236,4.769
			l-1.118-0.056L190.96,106.07z"/>
		<path d="M190.623,119.258l-4.939-0.771c-1.893-0.294-2.776-1.76-2.527-3.355c0.248-1.594,1.535-2.723,3.43-2.426l4.939,0.771
			l-0.188,1.217l-4.942-0.769c-1.317-0.206-1.953,0.522-2.086,1.388c-0.136,0.861,0.246,1.752,1.563,1.955l4.941,0.771
			L190.623,119.258z"/>
		<path d="M188.003,129.729l-7.56-2.092l0.25-0.904l6.559-2.734l-5.392-1.491l0.329-1.187l7.562,2.089l-0.255,0.918l-6.564,2.72
			l5.401,1.492L188.003,129.729z"/>
		<path d="M177.774,134.294c0.829-1.983,3.084-3.079,5.273-2.164c2.189,0.918,2.977,3.333,2.161,5.276
			c-0.387,0.927-1.046,1.636-1.862,2.045l-0.494-1.021c0.539-0.307,1.004-0.804,1.254-1.402c0.587-1.405-0.003-3.071-1.551-3.72
			c-1.549-0.648-3.132,0.061-3.708,1.436c-0.479,1.146-0.307,2.214,0.852,2.953l0.81-1.933l0.98,0.412l-1.247,2.983
			C177.779,138.398,176.975,136.204,177.774,134.294z"/>
		<path d="M151.739,172.791c-1.337-1.754-1.035-4.169,0.765-5.542l2.016-1.536l4.755,6.241l-2.016,1.535
			C155.459,174.862,153.051,174.514,151.739,172.791z M152.737,172.032c0.905,1.184,2.461,1.563,3.823,0.522l1.025-0.781
			l-3.343-4.386l-1.023,0.78C151.855,169.209,151.807,170.811,152.737,172.032z"/>
		<path d="M143.224,174.805l-0.589-0.976l3.228-1.945l0.862-0.521l4.041,6.709l-1.053,0.634l-2.951,1.779l-0.591-0.979l2.953-1.779
			l-1.133-1.878l-2.27,1.367l-0.579-0.957l2.272-1.367l-1.155-1.918L143.224,174.805z"/>
		<path d="M137.991,183.222l0.603-0.866c0.637,0.427,1.262,0.575,1.921,0.263c0.653-0.312,0.937-0.914,0.688-1.439
			c-0.236-0.495-0.694-0.649-1.488-0.58l-0.58,0.055c-1.647,0.151-2.651-0.115-3.154-1.176c-0.618-1.302,0.275-2.617,1.478-3.188
			c1.231-0.585,2.571-0.315,3.348,0.538l-0.655,0.858c-0.561-0.528-1.355-0.793-2.213-0.385c-0.706,0.334-1.113,0.984-0.812,1.621
			c0.321,0.676,0.905,0.734,1.854,0.653l0.571-0.048c1.246-0.11,2.25,0.07,2.771,1.171c0.507,1.068-0.089,2.315-1.34,2.911
			C139.82,184.16,138.668,183.79,137.991,183.222z"/>
		<path d="M130.983,179.206l1.151-0.436l2.774,7.312l-1.148,0.438L130.983,179.206z"/>
		<path d="M124.081,181.31c2.076-0.573,4.33,0.522,4.965,2.813c0.63,2.29-0.785,4.4-2.813,4.964c-0.975,0.27-1.938,0.187-2.765-0.2
			l0.497-1.021c0.573,0.233,1.253,0.292,1.881,0.119c1.468-0.405,2.415-1.901,1.968-3.52c-0.447-1.621-1.983-2.428-3.421-2.031
			c-1.198,0.332-1.933,1.126-1.8,2.497l2.021-0.56l0.283,1.026l-3.121,0.862C120.853,183.851,122.085,181.862,124.081,181.31z"/>
		<path d="M112.207,191.684l-1.128-7.755l0.93-0.137l5.135,4.9l-0.805-5.527l1.217-0.179l1.129,7.753l-0.942,0.137l-5.123-4.909
			l0.805,5.538L112.207,191.684z"/>
		<path d="M97.124,184.145l1.892,3.017l2.127-2.848l1.453,0.061l-2.898,3.881l2.48,3.95l-1.455-0.061l-1.797-2.857l-2.008,2.697
			l-1.456-0.061l2.78-3.729l-2.574-4.112L97.124,184.145z"/>
		<path d="M83.49,181.98c2.054,0.465,3.574,2.508,3.049,4.823c-0.523,2.315-2.78,3.502-4.831,3.037
			c-0.982-0.223-1.792-0.749-2.338-1.48l0.92-0.667c0.396,0.48,0.966,0.853,1.599,0.995c1.486,0.337,3.037-0.53,3.409-2.166
			c0.369-1.639-0.656-3.087-2.142-3.423c-0.644-0.146-1.343-0.053-1.913,0.231l-0.54-1.006
			C81.527,181.88,82.497,181.754,83.49,181.98z"/>
		<path d="M69.477,181.739c0.81-2.232,3.182-3.135,5.16-2.418c1.979,0.716,3.225,2.931,2.418,5.16
			c-0.807,2.231-3.183,3.134-5.16,2.417C69.915,186.183,68.67,183.971,69.477,181.739z M70.678,182.174
			c-0.573,1.578,0.256,3.14,1.614,3.633c1.357,0.49,2.99-0.179,3.563-1.758c0.571-1.578-0.256-3.142-1.613-3.631
			C72.885,179.924,71.249,180.595,70.678,182.174z"/>
		<path d="M60.404,177.308c1.005-1.965,3.312-2.734,5.328-1.704l2.252,1.154l-3.574,6.981l-2.252-1.153
			C60.142,181.556,59.418,179.233,60.404,177.308z M61.519,177.879c-0.679,1.327-0.347,2.895,1.18,3.675l1.146,0.587l2.511-4.907
			l-1.146-0.587C63.683,175.864,62.218,176.514,61.519,177.879z"/>
		<path d="M54.883,170.469l0.629-0.955l3.149,2.078l0.842,0.556l-4.318,6.543l-1.025-0.679l-2.88-1.897l0.628-0.955l2.88,1.899
			l1.207-1.832l-2.212-1.46l0.613-0.936l2.217,1.46l1.231-1.87L54.883,170.469z"/>
		<path d="M28.21,139.534l1.005-0.54l1.787,3.323l0.478,0.888l-6.899,3.709l-0.583-1.083l-1.634-3.036l1.005-0.541l1.634,3.036
			l1.931-1.04l-1.256-2.335l0.984-0.53l1.257,2.335l1.973-1.061L28.21,139.534z"/>
		<path d="M26.076,131.798l-1.829,2.745l0.05,0.125l0.531,1.295l2.528-1.033l0.468,1.139l-7.257,2.971l-0.998-2.438
			c-0.666-1.626-0.078-3.029,1.322-3.603c1.015-0.414,2.011-0.206,2.725,0.568l1.96-2.993L26.076,131.798z M23.832,136.37
			l-0.508-1.241c-0.377-0.926-1.065-1.357-1.966-0.988c-0.902,0.369-1.088,1.158-0.709,2.081l0.508,1.244L23.832,136.37z"/>
		<path d="M24.299,126.603l0.371,1.174l-7.478,2.365l-0.371-1.177L24.299,126.603z"/>
		<path d="M22.575,119.537c0.46,2.051-0.733,4.301-3.051,4.818c-2.313,0.516-4.352-1.013-4.809-3.066
			c-0.219-0.982-0.088-1.94,0.339-2.745l0.993,0.546c-0.264,0.563-0.354,1.236-0.214,1.87c0.332,1.485,1.775,2.516,3.414,2.149
			c1.639-0.365,2.508-1.911,2.177-3.396c-0.145-0.644-0.528-1.234-1.028-1.626l0.678-0.92
			C21.826,117.72,22.354,118.542,22.575,119.537z"/>
		<path d="M14.11,107.538l2.246-0.101l-0.13-2.889l1.053-0.048l0.131,2.889l3.416-0.156l0.055,1.265l-7.834,0.356l-0.219-4.768
			l1.121-0.051L14.11,107.538z"/>
		<path d="M13.184,94.361l4.975,0.282c1.907,0.108,2.928,1.473,2.838,3.079c-0.091,1.605-1.26,2.85-3.167,2.742l-4.975-0.279
			l0.07-1.227l4.975,0.279c1.327,0.075,1.885-0.711,1.936-1.581c0.05-0.87-0.418-1.712-1.744-1.787l-4.978-0.279L13.184,94.361z"/>
		<path d="M14.763,83.697l7.727,1.347l-0.163,0.928l-6.262,3.355l5.51,0.96l-0.211,1.215l-7.728-1.348l0.164-0.94l6.269-3.34
			l-5.518-0.963L14.763,83.697z"/>
		<path d="M24.51,78.114c-0.634,2.052-2.77,3.358-5.035,2.657c-2.264-0.699-3.277-3.023-2.656-5.032
			c0.297-0.963,0.885-1.729,1.654-2.215l0.59,0.966c-0.507,0.357-0.919,0.896-1.11,1.519c-0.45,1.452,0.297,3.051,1.897,3.546
			c1.604,0.495,3.109-0.361,3.549-1.784c0.365-1.185,0.091-2.23-1.131-2.854l-0.618,1.998l-1.016-0.313l0.955-3.087
			C24.108,74.035,25.119,76.139,24.51,78.114z"/>
	</g>
</g>
</svg>
