<?xml version="1.0" encoding="utf-8"?>
<!-- Generator: Adobe Illustrator 16.0.0, SVG Export Plug-In . SVG Version: 6.00 Build 0)  -->
<!DOCTYPE svg PUBLIC "-//W3C//DTD SVG 1.1//EN" "http://www.w3.org/Graphics/SVG/1.1/DTD/svg11.dtd">
<svg version="1.1" id="Layer_1" xmlns="http://www.w3.org/2000/svg" xmlns:xlink="http://www.w3.org/1999/xlink" x="0px" y="0px"
	 width="110px" height="110px" viewBox="0 0 110 110" enable-background="new 0 0 110 110" xml:space="preserve">
<circle fill="none" stroke="#FFFFFF" stroke-miterlimit="10" cx="55" cy="55" r="53.353"/>
<g>
	<path fill="#FFFFFF" d="M67.699,68.017v6.813h-18.3h-6.25V35.416h7.376h16.667v6.813H50.525v9.46h12.669v6.644H50.525v9.685H67.699
		z"/>
</g>
<g>
	<path fill="#FFFFFF" d="M26.298,18.908c0.89,1.019,0.804,2.507-0.241,3.42l-1.169,1.021l-3.162-3.621l1.169-1.021
		C23.939,17.794,25.426,17.91,26.298,18.908z M25.719,19.414c-0.601-0.688-1.567-0.855-2.359-0.165l-0.595,0.52l2.222,2.545
		l0.596-0.52C26.373,21.104,26.337,20.123,25.719,19.414z"/>
	<path fill="#FFFFFF" d="M31.685,17.238l0.39,0.582l-1.923,1.286l-0.514,0.343l-2.671-3.995l0.628-0.419l1.758-1.175l0.389,0.582
		l-1.757,1.175l0.747,1.119l1.353-0.904l0.382,0.571l-1.353,0.904l0.763,1.142L31.685,17.238z"/>
	<path fill="#FFFFFF" d="M34.845,11.918l-0.355,0.543c-0.398-0.252-0.785-0.333-1.183-0.13c-0.398,0.203-0.562,0.578-0.399,0.896
		c0.152,0.3,0.436,0.387,0.923,0.331l0.356-0.042c1.009-0.121,1.63,0.025,1.957,0.668c0.401,0.789-0.127,1.612-0.854,1.983
		c-0.747,0.38-1.574,0.238-2.065-0.274l0.389-0.537c0.353,0.313,0.845,0.464,1.365,0.199c0.428-0.218,0.668-0.625,0.472-1.01
		c-0.209-0.41-0.568-0.435-1.15-0.37l-0.351,0.039c-0.764,0.088-1.381-0.005-1.721-0.672c-0.33-0.649,0.015-1.425,0.773-1.811
		C33.705,11.374,34.419,11.581,34.845,11.918z"/>
	<path fill="#FFFFFF" d="M39.438,14.211l-0.703,0.275l-1.752-4.476l0.703-0.275L39.438,14.211z"/>
	<path fill="#FFFFFF" d="M43.889,12.854c-1.274,0.34-2.651-0.345-3.027-1.752c-0.375-1.407,0.505-2.694,1.753-3.027
		c0.598-0.159,1.188-0.104,1.693,0.139l-0.311,0.623c-0.352-0.148-0.768-0.187-1.152-0.083c-0.902,0.241-1.492,1.151-1.227,2.147
		s1.203,1.499,2.086,1.264c0.737-0.196,1.191-0.68,1.116-1.521l-1.241,0.331l-0.168-0.63l1.918-0.512
		C45.881,11.313,45.116,12.526,43.889,12.854z"/>
	<path fill="#FFFFFF" d="M51.514,6.639l0.534,4.774l-0.573,0.064l-3.047-3.105l0.38,3.403l-0.75,0.084l-0.534-4.774l0.58-0.065
		l3.041,3.113l-0.381-3.41L51.514,6.639z"/>
	<path fill="#FFFFFF" d="M60.619,11.7l-1.051-1.915l-1.403,1.668l-0.889-0.089l1.913-2.273l-1.378-2.507L58.7,6.673l0.999,1.813
		l1.325-1.58l0.889,0.089L60.078,9.18l1.43,2.609L60.619,11.7z"/>
	<path fill="#FFFFFF" d="M68.842,13.667c-1.229-0.396-2.047-1.727-1.6-3.111c0.446-1.385,1.888-1.987,3.115-1.591
		c0.588,0.189,1.054,0.556,1.347,1.033l-0.598,0.355c-0.216-0.314-0.544-0.572-0.922-0.694c-0.889-0.287-1.883,0.157-2.198,1.137
		c-0.315,0.98,0.231,1.92,1.12,2.207c0.385,0.124,0.816,0.104,1.18-0.038l0.275,0.644C70.034,13.835,69.436,13.859,68.842,13.667z"
		/>
	<path fill="#FFFFFF" d="M77.493,14.734c-0.641,1.307-2.148,1.699-3.307,1.131c-1.159-0.568-1.772-2-1.132-3.307
		c0.641-1.307,2.147-1.7,3.307-1.132S78.134,13.427,77.493,14.734z M76.79,14.389c0.453-0.924,0.053-1.932-0.743-2.321
		c-0.795-0.39-1.836-0.09-2.289,0.835c-0.454,0.925-0.053,1.932,0.742,2.321C75.296,15.614,76.337,15.314,76.79,14.389z"/>
	<path fill="#FFFFFF" d="M82.901,18.291c-0.77,1.112-2.233,1.394-3.374,0.604l-1.275-0.883l2.734-3.952l1.275,0.883
		C83.402,15.732,83.655,17.201,82.901,18.291z M82.27,17.853c0.52-0.751,0.444-1.729-0.419-2.327l-0.649-0.449l-1.922,2.777
		l0.649,0.449C80.792,18.901,81.734,18.626,82.27,17.853z"/>
	<path fill="#FFFFFF" d="M85.843,23.107l-0.47,0.52l-1.718-1.553l-0.459-0.415l3.226-3.567l0.561,0.507l1.57,1.419l-0.471,0.52
		l-1.569-1.419l-0.903,0.999l1.208,1.092l-0.461,0.51l-1.208-1.092l-0.922,1.02L85.843,23.107z"/>
	<path fill="#FFFFFF" d="M94.759,35.288l-0.617,0.333l-1.1-2.037l-0.294-0.544l4.229-2.286l0.359,0.665l1.006,1.861l-0.617,0.333
		l-1.005-1.861l-1.185,0.64l0.773,1.432l-0.604,0.327l-0.774-1.432l-1.208,0.653L94.759,35.288z"/>
	<path fill="#FFFFFF" d="M96.075,40.188l1.149-1.662l-0.029-0.077l-0.312-0.799l-1.56,0.607l-0.273-0.703l4.476-1.741l0.584,1.502
		c0.391,1.004,0.016,1.856-0.848,2.192c-0.626,0.244-1.232,0.104-1.663-0.376l-1.23,1.811L96.075,40.188z M97.498,37.411
		l0.299,0.767c0.221,0.569,0.636,0.842,1.192,0.625s0.678-0.698,0.457-1.267l-0.299-0.767L97.498,37.411z"/>
	<path fill="#FFFFFF" d="M97.151,43.645l-0.203-0.729l4.636-1.292l0.203,0.729L97.151,43.645z"/>
	<path fill="#FFFFFF" d="M98.056,48.249c-0.212-1.273,0.595-2.613,2.031-2.852s2.635,0.766,2.847,2.039
		c0.102,0.61-0.01,1.192-0.299,1.672l-0.591-0.368c0.181-0.336,0.259-0.746,0.193-1.139c-0.154-0.921-1.005-1.601-2.021-1.432
		s-1.602,1.088-1.447,2.01c0.066,0.4,0.282,0.774,0.575,1.032l-0.445,0.541C98.454,49.387,98.158,48.865,98.056,48.249z"/>
	<path fill="#FFFFFF" d="M102.759,55.935l-1.38-0.043l-0.056,1.772l-0.646-0.021l0.056-1.771l-2.095-0.065l0.024-0.776l4.807,0.149
		l-0.091,2.926l-0.688-0.021L102.759,55.935z"/>
	<path fill="#FFFFFF" d="M102.603,64.26l-3.028-0.47c-1.161-0.18-1.704-1.078-1.552-2.055c0.151-0.979,0.939-1.67,2.101-1.49
		l3.029,0.471l-0.116,0.746l-3.028-0.469c-0.809-0.126-1.197,0.321-1.279,0.852c-0.082,0.529,0.153,1.073,0.961,1.198l3.028,0.47
		L102.603,64.26z"/>
	<path fill="#FFFFFF" d="M100.766,71.038l-4.593-1.4l0.168-0.551l4.056-1.568l-3.274-0.997l0.22-0.722l4.593,1.399l-0.17,0.558
		l-4.06,1.56l3.28,0.999L100.766,71.038z"/>
	<path fill="#FFFFFF" d="M94.284,73.872c0.568-1.189,1.982-1.791,3.296-1.164s1.721,2.131,1.164,3.296
		c-0.266,0.558-0.691,0.971-1.203,1.198l-0.272-0.641c0.341-0.172,0.64-0.463,0.811-0.822c0.403-0.842,0.093-1.881-0.837-2.325
		c-0.929-0.444-1.92-0.058-2.313,0.767c-0.329,0.688-0.256,1.346,0.432,1.834l0.554-1.158l0.589,0.281l-0.855,1.791
		C94.163,76.387,93.736,75.019,94.284,73.872z"/>
	<path fill="#FFFFFF" d="M85.074,89.95c-0.929-0.986-0.898-2.479,0.112-3.431l1.132-1.065l3.3,3.503l-1.131,1.065
		C87.477,90.976,85.984,90.916,85.074,89.95z M85.635,89.422c0.628,0.666,1.602,0.797,2.367,0.075l0.575-0.541l-2.319-2.463
		l-0.576,0.542C84.916,87.757,84.989,88.736,85.635,89.422z"/>
	<path fill="#FFFFFF" d="M79.766,91.817l-0.411-0.566l1.872-1.357l0.5-0.363l2.819,3.889l-0.61,0.443l-1.711,1.24l-0.411-0.566
		l1.711-1.24l-0.79-1.09l-1.316,0.955l-0.402-0.555l1.316-0.955l-0.806-1.111L79.766,91.817z"/>
	<path fill="#FFFFFF" d="M76.8,97.278l0.334-0.558c0.408,0.236,0.799,0.301,1.188,0.083c0.39-0.219,0.538-0.601,0.363-0.912
		c-0.164-0.295-0.451-0.37-0.937-0.295l-0.354,0.057c-1.005,0.16-1.632,0.039-1.984-0.591c-0.433-0.773,0.063-1.618,0.776-2.018
		c0.732-0.409,1.564-0.301,2.077,0.192l-0.368,0.553c-0.365-0.301-0.863-0.431-1.373-0.146c-0.42,0.235-0.644,0.651-0.432,1.029
		c0.225,0.401,0.585,0.413,1.166,0.324l0.348-0.054c0.761-0.118,1.383-0.049,1.748,0.605c0.356,0.635,0.042,1.426-0.701,1.842
		C77.962,97.777,77.239,97.599,76.8,97.278z"/>
	<path fill="#FFFFFF" d="M72.127,95.152l0.691-0.302l1.922,4.4l-0.691,0.303L72.127,95.152z"/>
	<path fill="#FFFFFF" d="M67.721,96.688c1.26-0.391,2.662,0.24,3.093,1.631s-0.397,2.711-1.632,3.093
		c-0.59,0.183-1.183,0.15-1.697-0.071l0.286-0.635c0.357,0.133,0.774,0.156,1.154,0.038c0.893-0.276,1.445-1.209,1.141-2.193
		s-1.261-1.45-2.134-1.181c-0.729,0.226-1.162,0.727-1.055,1.563l1.227-0.379l0.193,0.623L66.4,99.764
		C65.791,98.306,66.507,97.063,67.721,96.688z"/>
	<path fill="#FFFFFF" d="M60.348,103.202l-0.727-4.753l0.57-0.087l3.173,2.982l-0.518-3.389l0.747-0.114l0.727,4.753l-0.577,0.089
		l-3.167-2.991l0.519,3.396L60.348,103.202z"/>
	<path fill="#FFFFFF" d="M51.069,98.487l1.125,1.869l1.334-1.721l0.891,0.053l-1.818,2.346l1.476,2.447l-0.891-0.054l-1.069-1.77
		l-1.26,1.63l-0.891-0.055l1.744-2.253l-1.531-2.547L51.069,98.487z"/>
	<path fill="#FFFFFF" d="M42.768,96.838c1.242,0.347,2.112,1.645,1.721,3.046c-0.392,1.4-1.808,2.059-3.05,1.711
		c-0.595-0.166-1.074-0.514-1.387-0.979l0.583-0.378c0.229,0.306,0.566,0.55,0.949,0.657c0.898,0.251,1.874-0.232,2.151-1.223
		c0.276-0.991-0.308-1.909-1.206-2.16c-0.39-0.109-0.82-0.072-1.178,0.084l-0.3-0.633C41.569,96.717,42.166,96.67,42.768,96.838z"/>
	<path fill="#FFFFFF" d="M34.074,96.095c0.593-1.328,2.084-1.777,3.264-1.252c1.179,0.525,1.844,1.934,1.252,3.264
		c-0.592,1.329-2.084,1.777-3.263,1.252S33.482,97.425,34.074,96.095z M34.79,96.413c-0.419,0.941,0.019,1.933,0.827,2.293
		c0.81,0.36,1.839,0.022,2.258-0.918c0.419-0.941-0.019-1.933-0.828-2.293C36.238,95.135,35.208,95.474,34.79,96.413z"/>
	<path fill="#FFFFFF" d="M28.524,92.747c0.728-1.139,2.179-1.474,3.347-0.729l1.308,0.835l-2.585,4.048l-1.308-0.834
		C28.118,95.321,27.812,93.864,28.524,92.747z M29.172,93.161c-0.491,0.77-0.38,1.743,0.505,2.309l0.665,0.424l1.816-2.845
		l-0.665-0.425C30.608,92.06,29.678,92.368,29.172,93.161z"/>
	<path fill="#FFFFFF" d="M25.424,88.077l0.448-0.537l1.773,1.48l0.475,0.396l-3.076,3.685l-0.579-0.483l-1.622-1.354l0.448-0.537
		l1.622,1.354l0.861-1.031l-1.248-1.042l0.439-0.526l1.248,1.041l0.879-1.053L25.424,88.077z"/>
	<path fill="#FFFFFF" d="M16.027,76.231l0.602-0.355l1.178,1.99l0.314,0.531l-4.133,2.445l-0.385-0.649l-1.076-1.818l0.603-0.356
		l1.076,1.818l1.157-0.685l-0.828-1.399l0.591-0.35l0.828,1.399l1.181-0.698L16.027,76.231z"/>
	<path fill="#FFFFFF" d="M14.521,71.393l-1.085,1.71l0.033,0.076l0.343,0.787l1.538-0.67l0.302,0.693l-4.411,1.922l-0.646-1.48
		c-0.431-0.989-0.09-1.857,0.761-2.229c0.618-0.27,1.23-0.154,1.681,0.311l1.16-1.863L14.521,71.393z M13.208,74.229l-0.33-0.756
		c-0.244-0.561-0.671-0.817-1.219-0.578c-0.549,0.238-0.651,0.726-0.407,1.287l0.33,0.756L13.208,74.229z"/>
	<path fill="#FFFFFF" d="M13.313,67.97l0.23,0.721L8.96,70.153L8.73,69.433L13.313,67.97z"/>
	<path fill="#FFFFFF" d="M12.236,63.426c0.261,1.265-0.495,2.635-1.922,2.929c-1.427,0.295-2.662-0.664-2.924-1.929
		c-0.125-0.605-0.035-1.192,0.235-1.683l0.604,0.345c-0.168,0.343-0.229,0.756-0.149,1.146c0.188,0.915,1.066,1.562,2.075,1.354
		c1.01-0.208,1.559-1.149,1.37-2.064c-0.082-0.397-0.312-0.764-0.615-1.01l0.425-0.558C11.794,62.304,12.109,62.813,12.236,63.426z"
		/>
	<path fill="#FFFFFF" d="M7.245,55.911l1.381-0.021l-0.028-1.771l0.646-0.01l0.028,1.771l2.094-0.032l0.012,0.776l-4.806,0.074
		l-0.046-2.925l0.687-0.011L7.245,55.911z"/>
	<path fill="#FFFFFF" d="M7.081,47.584l3.042,0.354c1.166,0.136,1.742,1.012,1.628,1.994c-0.114,0.982-0.876,1.703-2.042,1.567
		l-3.042-0.354l0.087-0.75l3.042,0.354c0.812,0.094,1.184-0.367,1.245-0.899c0.063-0.532-0.193-1.066-1.006-1.161l-3.042-0.354
		L7.081,47.584z"/>
	<path fill="#FFFFFF" d="M8.641,40.74l4.646,1.218l-0.146,0.558l-3.992,1.727l3.313,0.868l-0.191,0.73l-4.646-1.217l0.147-0.564
		l3.998-1.719l-3.319-0.87L8.641,40.74z"/>
	<path fill="#FFFFFF" d="M15.01,37.666c-0.521,1.21-1.91,1.867-3.246,1.291c-1.336-0.576-1.802-2.062-1.291-3.246
		c0.244-0.567,0.653-0.996,1.155-1.243l0.297,0.629c-0.333,0.185-0.62,0.487-0.778,0.853c-0.369,0.857-0.019,1.882,0.927,2.29
		s1.92-0.017,2.281-0.855c0.302-0.699,0.202-1.354-0.503-1.816l-0.508,1.179l-0.599-0.258l0.785-1.821
		C15.033,35.149,15.512,36.5,15.01,37.666z"/>
</g>
</svg>
