<?xml version="1.0" encoding="utf-8"?>
<!-- Generator: Adobe Illustrator 16.0.0, SVG Export Plug-In . SVG Version: 6.00 Build 0)  -->
<!DOCTYPE svg PUBLIC "-//W3C//DTD SVG 1.1//EN" "http://www.w3.org/Graphics/SVG/1.1/DTD/svg11.dtd">
<svg version="1.1" id="Layer_1" xmlns="http://www.w3.org/2000/svg" xmlns:xlink="http://www.w3.org/1999/xlink" x="0px" y="0px"
	 width="89.359px" height="95.111px" viewBox="0 0 89.359 95.111" enable-background="new 0 0 89.359 95.111" xml:space="preserve">
<g>
	<path fill="#4D4D4D" d="M10.472,29.041c-1.097,2.08-3.935,3.243-6.401,1.941c-2.465-1.3-3.108-4.299-2.011-6.378
		c0.536-1.018,1.379-1.768,2.394-2.188l0.286,0.732c-0.842,0.349-1.534,0.982-1.948,1.767c-0.918,1.741-0.394,4.229,1.675,5.32
		s4.417,0.119,5.336-1.623c0.419-0.794,0.552-1.724,0.364-2.616l0.749-0.202C11.152,26.875,11.015,28.013,10.472,29.041z"/>
	<path fill="#4D4D4D" d="M16.77,19.276l0.577,0.524l-3.46,3.801L7.05,17.374l0.55-0.605l6.262,5.703L16.77,19.276z"/>
	<path fill="#4D4D4D" d="M24.417,9.027c1.518,2.339,0.617,5.271-1.357,6.552c-1.972,1.281-5.018,0.91-6.535-1.43
		c-1.518-2.338-0.616-5.271,1.357-6.551C19.854,6.318,22.9,6.689,24.417,9.027z M23.708,9.489c-1.273-1.962-3.798-2.261-5.396-1.225
		c-1.596,1.035-2.352,3.464-1.079,5.426c1.274,1.962,3.8,2.26,5.396,1.225C24.226,13.879,24.981,11.451,23.708,9.489z"/>
	<path fill="#4D4D4D" d="M32.943,3.072l-0.499,0.487c-0.657-0.736-1.553-1.122-2.55-0.813c-1.084,0.336-1.632,1.199-1.366,2.056
		c0.244,0.783,0.922,1.14,2.098,1.229l0.718,0.041c1.653,0.109,2.904,0.398,3.358,1.861c0.442,1.425-0.626,2.794-2.114,3.257
		c-1.476,0.458-2.99-0.053-3.698-1.216l0.566-0.495c0.62,0.927,1.718,1.347,2.903,0.979c1.085-0.337,1.854-1.294,1.549-2.277
		c-0.35-1.123-1.304-1.298-2.5-1.367l-0.776-0.049c-1.526-0.107-2.527-0.571-2.885-1.72c-0.389-1.249,0.39-2.528,1.93-3.006
		C30.988,1.632,32.284,2.198,32.943,3.072z"/>
	<path fill="#4D4D4D" d="M44.027,8.445l0.052,0.778l-4.814,0.308L38.71,9.566l-0.591-9.231l0.817-0.052L43.368,0l0.05,0.778
		l-4.432,0.283l0.221,3.441l3.481-0.223l0.048,0.751l-3.48,0.223l0.223,3.482L44.027,8.445z"/>
	<path fill="#4D4D4D" d="M62.534,13.896l-0.771-0.313l2.783-6.869l-6.139,5.51l-0.601-0.244L57.25,3.756l-2.785,6.868l-0.771-0.312
		l3.476-8.57l0.76,0.308l0.619,8.989l6.701-6.021l0.76,0.309L62.534,13.896z"/>
	<path fill="#4D4D4D" d="M70.194,18.724l-0.483,0.609l-3.775-3.001l-0.434-0.346l5.758-7.239L71.9,9.259l3.476,2.763l-0.486,0.61
		l-3.475-2.764l-2.146,2.699L72,14.738l-0.472,0.589L68.8,13.156l-2.172,2.729L70.194,18.724z"/>
	<path fill="#4D4D4D" d="M84.062,22.155l-7.42,5.527l-0.371-0.498l2.648-9.388l-6.201,4.618l-0.488-0.657l7.418-5.525l0.373,0.498
		l-2.672,9.402l6.226-4.634L84.062,22.155z"/>
	<path fill="#4D4D4D" d="M89.325,33.743l-5.511,2.092c-2.139,0.813-3.832-0.072-4.487-1.804c-0.656-1.73,0.022-3.514,2.162-4.326
		l5.51-2.092l0.291,0.766l-5.498,2.088c-1.744,0.661-2.217,1.986-1.724,3.284c0.492,1.296,1.726,1.975,3.468,1.313l5.5-2.088
		L89.325,33.743z"/>
	<path fill="#4D4D4D" d="M80.118,73.501c-1.433-0.876-1.886-2.515-0.804-4.284l1.104-1.803l-2.908-1.779l0.428-0.697l7.89,4.825
		l-1.529,2.501C83.216,74.033,81.515,74.356,80.118,73.501z M80.546,72.802c1.16,0.712,2.322,0.308,3.086-0.945l1.104-1.804
		l-3.676-2.245l-1.104,1.804C79.194,70.862,79.384,72.092,80.546,72.802z"/>
	<path fill="#4D4D4D" d="M68.507,76.794l4.156,0.738c0.065-0.085,0.143-0.158,0.219-0.231l1.516-1.473l-2.371-2.445l0.586-0.57
		l6.439,6.639l-2.107,2.042c-1.485,1.443-3.215,1.334-4.354,0.157c-0.939-0.968-1.146-2.26-0.416-3.48l-4.322-0.739L68.507,76.794z
		 M74.923,76.371l-1.519,1.472c-1.053,1.021-1.174,2.262-0.229,3.238c0.947,0.977,2.174,0.873,3.227-0.146l1.519-1.473
		L74.923,76.371z"/>
	<path fill="#4D4D4D" d="M60.874,82.705l-0.392-0.674l4.179-2.417l0.479-0.278l4.635,8.009l-0.709,0.411l-3.844,2.227l-0.391-0.676
		l3.844-2.227l-1.729-2.985l-3.021,1.746l-0.375-0.65l3.02-1.748l-1.747-3.021L60.874,82.705z"/>
	<path fill="#4D4D4D" d="M54.024,92.141l0.509-0.48c0.646,0.745,1.536,1.146,2.536,0.848c1.091-0.321,1.65-1.177,1.396-2.039
		c-0.232-0.784-0.906-1.15-2.082-1.257l-0.717-0.051c-1.652-0.131-2.9-0.438-3.334-1.908c-0.424-1.432,0.664-2.787,2.16-3.229
		c1.479-0.438,2.989,0.095,3.68,1.268l-0.57,0.487c-0.608-0.938-1.703-1.37-2.893-1.021c-1.092,0.322-1.871,1.271-1.578,2.26
		c0.332,1.128,1.283,1.313,2.479,1.399l0.775,0.063c1.527,0.128,2.523,0.604,2.861,1.759c0.373,1.255-0.424,2.523-1.97,2.979
		C55.962,93.608,54.673,93.025,54.024,92.141z"/>
	<path fill="#4D4D4D" d="M43.102,93.289l0.606-0.346c0.451,0.879,1.221,1.479,2.264,1.429c1.135-0.052,1.883-0.75,1.842-1.646
		c-0.039-0.818-0.604-1.334-1.721-1.721l-0.686-0.22c-1.573-0.521-2.713-1.116-2.783-2.647c-0.07-1.491,1.31-2.549,2.867-2.62
		c1.545-0.071,2.883,0.805,3.274,2.109l-0.674,0.336c-0.365-1.056-1.324-1.738-2.564-1.681c-1.136,0.053-2.12,0.787-2.072,1.815
		c0.055,1.175,0.935,1.584,2.077,1.954l0.737,0.243c1.453,0.488,2.306,1.189,2.359,2.392c0.061,1.308-1.014,2.35-2.625,2.424
		C44.633,95.175,43.52,94.302,43.102,93.289z"/>
	<path fill="#4D4D4D" d="M23.51,90.594l3.344-8.62l0.766,0.297l-1.501,3.866l4.679,1.815l1.501-3.866l0.763,0.296l-3.343,8.619
		l-0.764-0.296l1.565-4.039l-4.68-1.813l-1.567,4.038L23.51,90.594z"/>
	<path fill="#4D4D4D" d="M18.819,77.631l0.454-0.634l3.921,2.809l0.451,0.322l-5.386,7.521l-0.667-0.479l-3.609-2.585l0.453-0.635
		l3.61,2.587l2.008-2.805l-2.835-2.03l0.438-0.612l2.836,2.03l2.03-2.835L18.819,77.631z"/>
	<path fill="#4D4D4D" d="M12.969,70.302l-1.006,4.103c0.079,0.071,0.146,0.151,0.216,0.231l1.37,1.61l2.598-2.21l0.531,0.624
		L9.63,80.658l-1.901-2.235c-1.346-1.581-1.123-3.298,0.126-4.36c1.027-0.873,2.33-0.992,3.503-0.187l1.021-4.27L12.969,70.302z
		 M12.975,76.736l-1.37-1.611c-0.951-1.117-2.182-1.319-3.219-0.438C7.348,75.57,7.372,76.8,8.322,77.917l1.371,1.611L12.975,76.736
		z"/>
	<path fill="#4D4D4D" d="M7.573,62.319l0.697-0.347l2.142,4.322l0.247,0.497l-8.291,4.104l-0.363-0.733l-1.97-3.979l0.697-0.348
		l1.972,3.979l3.091-1.53L4.247,65.16l0.674-0.333l1.549,3.127l3.126-1.549L7.573,62.319z"/>
</g>
</svg>
