<?xml version="1.0" encoding="utf-8"?>
<!-- Generator: Adobe Illustrator 16.0.0, SVG Export Plug-In . SVG Version: 6.00 Build 0)  -->
<!DOCTYPE svg PUBLIC "-//W3C//DTD SVG 1.1//EN" "http://www.w3.org/Graphics/SVG/1.1/DTD/svg11.dtd">
<svg version="1.1" id="Layer_1" xmlns="http://www.w3.org/2000/svg" xmlns:xlink="http://www.w3.org/1999/xlink" x="0px" y="0px"
	 width="90.729px" height="99.627px" viewBox="0 0 90.729 99.627" enable-background="new 0 0 90.729 99.627" xml:space="preserve">
<g>
	<path fill="#4D4D4D" d="M8.897,29.108l-0.438,0.749L0,24.912l0.438-0.75L8.897,29.108z"/>
	<path fill="#4D4D4D" d="M5.679,20.792l-0.521,0.693L3.2,20.015l0.521-0.693L5.679,20.792z"/>
	<path fill="#4D4D4D" d="M21.365,15.698l-0.673,0.57l-5.076-5.992l2.149,8.472l-0.523,0.443L9.25,15.669l5.076,5.992l-0.673,0.57
		l-6.334-7.477l0.662-0.561l8.741,3.842l-2.354-9.253l0.662-0.561L21.365,15.698z"/>
	<path fill="#4D4D4D" d="M36.896,7.348l-5.244,1.166l-0.538,2.671l-0.901,0.201l2.148-10.51l0.655-0.146l6.399,8.609l-0.9,0.201
		L36.896,7.348z M36.417,6.681l-3.468-4.704l-1.147,5.73L36.417,6.681z"/>
	<path fill="#4D4D4D" d="M59.037,12.085l-0.852-0.229l2.037-7.584l-5.742,6.589l-0.662-0.178l-1.652-8.576l-2.037,7.584
		l-0.852-0.229L51.818,0l0.838,0.225l1.816,9.373l6.27-7.201l0.838,0.225L59.037,12.085z"/>
	<path fill="#4D4D4D" d="M67.712,16.17l-0.432,0.704l-4.355-2.667l-0.5-0.307l5.115-8.353L68.281,6l4.01,2.456L71.859,9.16
		l-4.01-2.456l-1.906,3.114l3.147,1.93l-0.416,0.68l-3.149-1.93l-1.93,3.15L67.712,16.17z"/>
	<path fill="#4D4D4D" d="M82.703,17.985l-7.082,6.761l-0.453-0.476l1.572-10.203l-5.918,5.65l-0.6-0.627l7.082-6.761l0.452,0.476
		l-1.592,10.222l5.939-5.67L82.703,17.985z"/>
	<path fill="#4D4D4D" d="M89.742,29.466l-5.52,2.92c-2.142,1.133-4.035,0.424-4.953-1.309c-0.916-1.732-0.435-3.697,1.707-4.83
		l5.518-2.919l0.406,0.768l-5.506,2.913c-1.746,0.923-2.068,2.377-1.381,3.676c0.688,1.3,2.069,1.851,3.815,0.928l5.506-2.914
		L89.742,29.466z"/>
	<path fill="#4D4D4D" d="M85.22,72.444c-1.619-0.732-2.31-2.396-1.402-4.396l0.922-2.038l-3.287-1.488l0.357-0.789l8.918,4.037
		l-1.279,2.828C88.542,72.599,86.8,73.16,85.22,72.444z M85.578,71.655c1.313,0.594,2.479,0.018,3.119-1.397l0.922-2.038
		l-4.152-1.881l-0.924,2.039C83.904,69.792,84.265,71.062,85.578,71.655z"/>
	<path fill="#4D4D4D" d="M73.433,77.403l4.465,0.24c0.061-0.098,0.131-0.185,0.201-0.271l1.405-1.742l-2.811-2.268l0.545-0.676
		l7.625,6.151l-1.951,2.418c-1.379,1.711-3.209,1.817-4.561,0.728c-1.111-0.896-1.492-2.229-0.884-3.607l-4.643-0.221L73.433,77.403
		z M80.126,76.13l-1.405,1.744c-0.978,1.209-0.943,2.529,0.178,3.436c1.123,0.904,2.397,0.64,3.373-0.569l1.405-1.744L80.126,76.13z
		"/>
	<path fill="#4D4D4D" d="M66.173,84.608l-0.498-0.659l4.076-3.079l0.472-0.355l5.905,7.818l-0.692,0.523l-3.752,2.836l-0.498-0.659
		l3.752-2.835l-2.201-2.916l-2.949,2.229l-0.479-0.637l2.948-2.229l-2.229-2.948L66.173,84.608z"/>
	<path fill="#4D4D4D" d="M60.187,95.425l0.471-0.57c0.777,0.699,1.764,1.002,2.777,0.562c1.104-0.479,1.582-1.451,1.2-2.324
		c-0.346-0.795-1.102-1.092-2.35-1.053l-0.762,0.041c-1.752,0.076-3.104-0.084-3.752-1.572c-0.631-1.448,0.336-3.016,1.852-3.674
		c1.5-0.653,3.154-0.29,4.033,0.854l-0.539,0.586c-0.76-0.906-1.965-1.222-3.172-0.695c-1.104,0.48-1.801,1.577-1.365,2.578
		c0.498,1.143,1.521,1.215,2.791,1.15l0.822-0.037c1.621-0.063,2.729,0.309,3.238,1.477c0.553,1.271-0.119,2.707-1.687,3.389
		C62.414,96.715,60.982,96.269,60.187,95.425z"/>
	<path fill="#4D4D4D" d="M48.9,98.043l0.592-0.442c0.588,0.865,1.475,1.396,2.564,1.207c1.186-0.203,1.881-1.031,1.721-1.971
		c-0.146-0.855-0.81-1.322-2.033-1.582l-0.748-0.143c-1.721-0.344-2.994-0.82-3.27-2.42c-0.267-1.56,1.047-2.851,2.674-3.129
		c1.613-0.275,3.133,0.472,3.715,1.791l-0.662,0.44c-0.522-1.062-1.619-1.653-2.916-1.432c-1.186,0.202-2.125,1.103-1.94,2.179
		c0.211,1.229,1.188,1.543,2.436,1.783l0.809,0.158c1.591,0.324,2.578,0.951,2.793,2.205c0.234,1.365-0.762,2.603-2.442,2.892
		C50.753,99.827,49.47,99.052,48.9,98.043z"/>
	<path fill="#4D4D4D" d="M27.938,97.749l2.393-9.496l0.841,0.213l-1.072,4.26l5.153,1.299l1.073-4.26l0.842,0.211l-2.393,9.496
		l-0.842-0.212l1.121-4.448L29.9,93.513l-1.121,4.448L27.938,97.749z"/>
	<path fill="#4D4D4D" d="M21.339,84.755l0.396-0.727l4.488,2.439l0.517,0.28l-4.678,8.608l-0.764-0.414l-4.133-2.245l0.396-0.726
		l4.133,2.244l1.744-3.209l-3.247-1.765l0.381-0.701l3.247,1.765l1.765-3.246L21.339,84.755z"/>
	<path fill="#4D4D4D" d="M14.228,77.792L13.7,82.231c0.092,0.065,0.174,0.142,0.256,0.218l1.648,1.517l2.443-2.658l0.64,0.588
		l-6.633,7.209l-2.286-2.104c-1.617-1.486-1.604-3.32-0.431-4.598c0.968-1.051,2.321-1.344,3.657-0.647l0.521-4.616L14.228,77.792z
		 M15.064,84.552l-1.648-1.516c-1.143-1.053-2.463-1.105-3.438-0.045c-0.978,1.061-0.794,2.351,0.35,3.402l1.648,1.517
		L15.064,84.552z"/>
	<path fill="#4D4D4D" d="M7.519,70.101l0.688-0.453l2.813,4.267l0.324,0.489l-8.184,5.396l-0.478-0.725l-2.589-3.929l0.688-0.455
		l2.589,3.929l3.051-2.011L4.39,73.522l0.666-0.439l2.033,3.086l3.086-2.034L7.519,70.101z"/>
</g>
</svg>
