<?xml version="1.0" encoding="utf-8"?>
<!-- Generator: Adobe Illustrator 16.0.0, SVG Export Plug-In . SVG Version: 6.00 Build 0)  -->
<!DOCTYPE svg PUBLIC "-//W3C//DTD SVG 1.1//EN" "http://www.w3.org/Graphics/SVG/1.1/DTD/svg11.dtd">
<svg version="1.1" id="Layer_1" xmlns="http://www.w3.org/2000/svg" xmlns:xlink="http://www.w3.org/1999/xlink" x="0px" y="0px"
	 width="106.705px" height="106.706px" viewBox="0 0 106.705 106.706" enable-background="new 0 0 106.705 106.706"
	 xml:space="preserve">
<circle fill="none" stroke="#4D4D4D" stroke-miterlimit="10" cx="482.353" cy="-703.647" r="53.353"/>
<g>
	<path fill="#4D4D4D" d="M495.052-690.63v6.813h-18.3h-6.25v-39.413h7.376h16.667v6.813h-16.667v9.46h12.669v6.644h-12.669v9.685
		H495.052z"/>
</g>
<g>
	<path fill="#4D4D4D" d="M453.65-739.739c0.89,1.019,0.804,2.507-0.241,3.42l-1.169,1.021l-3.162-3.621l1.169-1.021
		C451.292-740.853,452.778-740.737,453.65-739.739z M453.071-739.233c-0.601-0.688-1.567-0.855-2.359-0.165l-0.595,0.52l2.222,2.545
		l0.596-0.52C453.726-737.543,453.689-738.524,453.071-739.233z"/>
	<path fill="#4D4D4D" d="M459.037-741.409l0.39,0.582l-1.923,1.286l-0.514,0.343l-2.671-3.995l0.628-0.419l1.758-1.175l0.389,0.582
		l-1.757,1.175l0.747,1.119l1.353-0.904l0.382,0.571l-1.353,0.904l0.763,1.142L459.037-741.409z"/>
	<path fill="#4D4D4D" d="M462.197-746.729l-0.355,0.543c-0.398-0.252-0.785-0.333-1.183-0.13c-0.398,0.203-0.562,0.578-0.399,0.896
		c0.152,0.3,0.436,0.387,0.923,0.331l0.356-0.042c1.009-0.121,1.63,0.025,1.957,0.668c0.401,0.789-0.127,1.612-0.854,1.983
		c-0.747,0.38-1.574,0.238-2.065-0.274l0.389-0.537c0.353,0.313,0.845,0.464,1.365,0.199c0.428-0.218,0.668-0.625,0.472-1.01
		c-0.209-0.41-0.568-0.435-1.15-0.37l-0.351,0.039c-0.764,0.088-1.381-0.005-1.721-0.672c-0.33-0.649,0.015-1.425,0.773-1.811
		C461.058-747.273,461.771-747.066,462.197-746.729z"/>
	<path fill="#4D4D4D" d="M466.79-744.436l-0.703,0.275l-1.752-4.476l0.703-0.275L466.79-744.436z"/>
	<path fill="#4D4D4D" d="M471.241-745.793c-1.274,0.34-2.651-0.345-3.027-1.752c-0.375-1.407,0.505-2.694,1.753-3.027
		c0.598-0.159,1.188-0.104,1.693,0.139l-0.311,0.623c-0.352-0.148-0.768-0.187-1.152-0.083c-0.902,0.241-1.492,1.151-1.227,2.147
		s1.203,1.499,2.086,1.264c0.737-0.196,1.191-0.68,1.116-1.521l-1.241,0.331l-0.168-0.63l1.918-0.512
		C473.233-747.334,472.469-746.121,471.241-745.793z"/>
	<path fill="#4D4D4D" d="M478.866-752.008l0.534,4.774l-0.573,0.064l-3.047-3.105l0.38,3.403l-0.75,0.084l-0.534-4.774l0.58-0.065
		l3.041,3.113l-0.381-3.41L478.866-752.008z"/>
	<path fill="#4D4D4D" d="M487.972-746.947l-1.051-1.915l-1.403,1.668l-0.889-0.089l1.913-2.273l-1.378-2.507l0.889,0.089
		l0.999,1.813l1.325-1.58l0.889,0.089l-1.835,2.184l1.43,2.609L487.972-746.947z"/>
	<path fill="#4D4D4D" d="M496.194-744.979c-1.229-0.396-2.047-1.727-1.6-3.111c0.446-1.385,1.888-1.987,3.115-1.591
		c0.588,0.189,1.054,0.556,1.347,1.033l-0.598,0.355c-0.216-0.314-0.544-0.572-0.922-0.694c-0.889-0.287-1.883,0.157-2.198,1.137
		c-0.315,0.98,0.231,1.92,1.12,2.207c0.385,0.124,0.816,0.104,1.18-0.038l0.275,0.644
		C497.387-744.812,496.788-744.788,496.194-744.979z"/>
	<path fill="#4D4D4D" d="M504.846-743.913c-0.641,1.307-2.148,1.699-3.307,1.131c-1.159-0.568-1.772-2-1.132-3.307
		c0.641-1.307,2.147-1.7,3.307-1.132S505.486-745.22,504.846-743.913z M504.143-744.258c0.453-0.924,0.053-1.932-0.743-2.321
		c-0.795-0.39-1.836-0.09-2.289,0.835c-0.454,0.925-0.053,1.932,0.742,2.321C502.648-743.033,503.689-743.333,504.143-744.258z"/>
	<path fill="#4D4D4D" d="M510.254-740.356c-0.77,1.112-2.233,1.394-3.374,0.604l-1.275-0.883l2.734-3.952l1.275,0.883
		C510.755-742.915,511.008-741.446,510.254-740.356z M509.622-740.794c0.52-0.751,0.444-1.729-0.419-2.327l-0.649-0.449
		l-1.922,2.777l0.649,0.449C508.145-739.746,509.087-740.021,509.622-740.794z"/>
	<path fill="#4D4D4D" d="M513.195-735.54l-0.47,0.52l-1.718-1.553l-0.459-0.415l3.226-3.567l0.561,0.507l1.57,1.419l-0.471,0.52
		l-1.569-1.419l-0.903,0.999l1.208,1.092l-0.461,0.51l-1.208-1.092l-0.922,1.02L513.195-735.54z"/>
	<path fill="#4D4D4D" d="M522.111-723.359l-0.617,0.333l-1.1-2.037l-0.294-0.544l4.229-2.286l0.359,0.665l1.006,1.861l-0.617,0.333
		l-1.005-1.861l-1.185,0.64l0.773,1.432l-0.604,0.327l-0.774-1.432l-1.208,0.653L522.111-723.359z"/>
	<path fill="#4D4D4D" d="M523.428-718.459l1.149-1.662l-0.029-0.077l-0.312-0.799l-1.56,0.607l-0.273-0.703l4.476-1.741l0.584,1.502
		c0.391,1.004,0.016,1.856-0.848,2.192c-0.626,0.244-1.232,0.104-1.663-0.376l-1.23,1.811L523.428-718.459z M524.851-721.236
		l0.299,0.767c0.221,0.569,0.636,0.842,1.192,0.625s0.678-0.698,0.457-1.267l-0.299-0.767L524.851-721.236z"/>
	<path fill="#4D4D4D" d="M524.504-715.002l-0.203-0.729l4.636-1.292l0.203,0.729L524.504-715.002z"/>
	<path fill="#4D4D4D" d="M525.408-710.398c-0.212-1.273,0.595-2.613,2.031-2.852s2.635,0.766,2.847,2.039
		c0.102,0.61-0.01,1.192-0.299,1.672l-0.591-0.368c0.181-0.336,0.259-0.746,0.193-1.139c-0.154-0.921-1.005-1.601-2.021-1.432
		s-1.602,1.088-1.447,2.01c0.066,0.4,0.282,0.774,0.575,1.032l-0.445,0.541C525.807-709.26,525.511-709.782,525.408-710.398z"/>
	<path fill="#4D4D4D" d="M530.111-702.712l-1.38-0.043l-0.056,1.772l-0.646-0.021l0.056-1.771l-2.095-0.065l0.024-0.776l4.807,0.149
		l-0.091,2.925l-0.688-0.021L530.111-702.712z"/>
	<path fill="#4D4D4D" d="M529.955-694.387l-3.028-0.47c-1.161-0.18-1.704-1.078-1.552-2.055c0.151-0.978,0.939-1.669,2.101-1.489
		l3.029,0.47l-0.116,0.747l-3.028-0.469c-0.809-0.125-1.197,0.322-1.279,0.852s0.153,1.074,0.961,1.199l3.028,0.47L529.955-694.387z
		"/>
	<path fill="#4D4D4D" d="M528.118-687.609l-4.593-1.399l0.168-0.551l4.056-1.568l-3.274-0.998l0.22-0.722l4.593,1.399l-0.17,0.558
		l-4.06,1.56l3.28,1L528.118-687.609z"/>
	<path fill="#4D4D4D" d="M521.637-684.774c0.568-1.189,1.982-1.792,3.296-1.165s1.721,2.131,1.164,3.296
		c-0.266,0.558-0.691,0.971-1.203,1.198l-0.272-0.64c0.341-0.172,0.64-0.463,0.811-0.822c0.403-0.842,0.093-1.881-0.837-2.325
		c-0.929-0.444-1.92-0.058-2.313,0.766c-0.329,0.688-0.256,1.347,0.432,1.835l0.554-1.158l0.589,0.281l-0.855,1.79
		C521.516-682.26,521.089-683.628,521.637-684.774z"/>
	<path fill="#4D4D4D" d="M512.427-668.697c-0.929-0.986-0.898-2.479,0.112-3.431l1.132-1.066l3.3,3.503l-1.131,1.066
		C514.829-667.672,513.337-667.731,512.427-668.697z M512.987-669.225c0.628,0.666,1.602,0.797,2.367,0.076l0.575-0.542
		l-2.319-2.462l-0.576,0.542C512.269-670.891,512.342-669.911,512.987-669.225z"/>
	<path fill="#4D4D4D" d="M507.118-666.83l-0.411-0.566l1.872-1.357l0.5-0.363l2.819,3.888l-0.61,0.443l-1.711,1.241l-0.411-0.566
		l1.711-1.241l-0.79-1.089l-1.316,0.955l-0.402-0.555l1.316-0.955l-0.806-1.111L507.118-666.83z"/>
	<path fill="#4D4D4D" d="M504.152-661.369l0.334-0.557c0.408,0.236,0.799,0.301,1.188,0.083c0.39-0.218,0.538-0.601,0.363-0.913
		c-0.164-0.294-0.451-0.37-0.937-0.294l-0.354,0.056c-1.005,0.161-1.632,0.04-1.984-0.59c-0.433-0.773,0.063-1.618,0.776-2.018
		c0.732-0.41,1.564-0.301,2.077,0.192l-0.368,0.552c-0.365-0.3-0.863-0.43-1.373-0.145c-0.42,0.235-0.644,0.652-0.432,1.029
		c0.225,0.402,0.585,0.413,1.166,0.324l0.348-0.053c0.761-0.119,1.383-0.049,1.748,0.604c0.356,0.636,0.042,1.426-0.701,1.842
		C505.314-660.87,504.592-661.048,504.152-661.369z"/>
	<path fill="#4D4D4D" d="M499.479-663.495l0.691-0.302l1.922,4.4l-0.691,0.302L499.479-663.495z"/>
	<path fill="#4D4D4D" d="M495.073-661.959c1.26-0.39,2.662,0.24,3.093,1.631s-0.397,2.711-1.632,3.093
		c-0.59,0.183-1.183,0.15-1.697-0.072l0.286-0.635c0.357,0.134,0.774,0.156,1.154,0.039c0.893-0.276,1.445-1.209,1.141-2.193
		s-1.261-1.45-2.134-1.181c-0.729,0.226-1.162,0.727-1.055,1.563l1.227-0.379l0.193,0.623l-1.896,0.587
		C493.144-660.341,493.859-661.583,495.073-661.959z"/>
	<path fill="#4D4D4D" d="M487.7-655.445l-0.727-4.753l0.57-0.087l3.173,2.982l-0.518-3.388l0.747-0.114l0.727,4.753l-0.577,0.088
		l-3.167-2.991l0.519,3.395L487.7-655.445z"/>
	<path fill="#4D4D4D" d="M478.422-660.16l1.125,1.869l1.334-1.721l0.891,0.053l-1.818,2.346l1.476,2.447l-0.891-0.054l-1.069-1.77
		l-1.26,1.629l-0.891-0.054l1.744-2.253l-1.531-2.547L478.422-660.16z"/>
	<path fill="#4D4D4D" d="M470.12-661.809c1.242,0.347,2.112,1.645,1.721,3.045c-0.392,1.4-1.808,2.059-3.05,1.712
		c-0.595-0.166-1.074-0.514-1.387-0.979l0.583-0.378c0.229,0.306,0.566,0.55,0.949,0.657c0.898,0.251,1.874-0.231,2.151-1.222
		c0.276-0.991-0.308-1.909-1.206-2.161c-0.39-0.109-0.82-0.072-1.178,0.084l-0.3-0.633
		C468.922-661.93,469.519-661.977,470.12-661.809z"/>
	<path fill="#4D4D4D" d="M461.427-662.552c0.593-1.329,2.084-1.777,3.264-1.252c1.179,0.525,1.844,1.934,1.252,3.263
		s-2.084,1.777-3.263,1.252S460.835-661.222,461.427-662.552z M462.143-662.233c-0.419,0.941,0.019,1.932,0.827,2.292
		c0.81,0.36,1.839,0.022,2.258-0.918s-0.019-1.932-0.828-2.292C463.591-663.512,462.561-663.174,462.143-662.233z"/>
	<path fill="#4D4D4D" d="M455.877-665.899c0.728-1.139,2.179-1.474,3.347-0.729l1.308,0.834l-2.585,4.048l-1.308-0.834
		C455.471-663.326,455.164-664.783,455.877-665.899z M456.524-665.486c-0.491,0.769-0.38,1.743,0.505,2.309l0.665,0.424l1.816-2.845
		l-0.665-0.425C457.961-666.588,457.03-666.278,456.524-665.486z"/>
	<path fill="#4D4D4D" d="M452.776-670.57l0.448-0.537l1.773,1.481l0.475,0.396l-3.076,3.685l-0.579-0.483l-1.622-1.354l0.448-0.537
		l1.622,1.354l0.861-1.032l-1.248-1.042l0.439-0.526l1.248,1.042l0.879-1.053L452.776-670.57z"/>
	<path fill="#4D4D4D" d="M443.38-682.415l0.602-0.356l1.178,1.99l0.314,0.531l-4.133,2.446l-0.385-0.65l-1.076-1.818l0.603-0.356
		l1.076,1.818l1.157-0.685l-0.828-1.399l0.591-0.35l0.828,1.399l1.181-0.699L443.38-682.415z"/>
	<path fill="#4D4D4D" d="M441.874-687.254l-1.085,1.71l0.033,0.076l0.343,0.788l1.538-0.67l0.302,0.693l-4.411,1.922l-0.646-1.481
		c-0.431-0.989-0.09-1.858,0.761-2.229c0.618-0.27,1.23-0.154,1.681,0.31l1.16-1.863L441.874-687.254z M440.561-684.417l-0.33-0.756
		c-0.244-0.561-0.671-0.817-1.219-0.579c-0.549,0.239-0.651,0.726-0.407,1.287l0.33,0.756L440.561-684.417z"/>
	<path fill="#4D4D4D" d="M440.665-690.677l0.23,0.72l-4.583,1.463l-0.229-0.72L440.665-690.677z"/>
	<path fill="#4D4D4D" d="M439.589-695.221c0.261,1.265-0.495,2.635-1.922,2.929s-2.662-0.664-2.924-1.929
		c-0.125-0.605-0.035-1.192,0.235-1.683l0.604,0.345c-0.168,0.343-0.229,0.756-0.149,1.146c0.188,0.915,1.066,1.562,2.075,1.354
		c1.01-0.208,1.559-1.149,1.37-2.064c-0.082-0.397-0.312-0.764-0.615-1.01l0.425-0.558
		C439.146-696.343,439.462-695.833,439.589-695.221z"/>
	<path fill="#4D4D4D" d="M434.598-702.735l1.381-0.021l-0.028-1.771l0.646-0.01l0.028,1.771l2.094-0.033l0.012,0.776l-4.806,0.075
		l-0.046-2.925l0.687-0.011L434.598-702.735z"/>
	<path fill="#4D4D4D" d="M434.434-711.063l3.042,0.354c1.166,0.136,1.742,1.012,1.628,1.994c-0.114,0.982-0.876,1.703-2.042,1.567
		l-3.042-0.354l0.087-0.75l3.042,0.354c0.812,0.094,1.184-0.367,1.245-0.899c0.063-0.532-0.193-1.066-1.006-1.161l-3.042-0.354
		L434.434-711.063z"/>
	<path fill="#4D4D4D" d="M435.993-717.907l4.646,1.218l-0.146,0.558l-3.992,1.727l3.313,0.868l-0.191,0.73l-4.646-1.217l0.147-0.564
		l3.998-1.719l-3.319-0.87L435.993-717.907z"/>
	<path fill="#4D4D4D" d="M442.362-720.981c-0.521,1.21-1.91,1.867-3.246,1.291c-1.336-0.576-1.802-2.062-1.291-3.246
		c0.244-0.567,0.653-0.996,1.155-1.243l0.297,0.629c-0.333,0.185-0.62,0.487-0.778,0.853c-0.369,0.857-0.019,1.882,0.927,2.29
		s1.92-0.017,2.281-0.855c0.302-0.699,0.202-1.354-0.503-1.816l-0.508,1.179l-0.599-0.258l0.785-1.821
		C442.386-723.498,442.864-722.147,442.362-720.981z"/>
</g>
<circle fill="none" stroke="#000000" stroke-miterlimit="10" cx="53.353" cy="53.353" r="53.353"/>
<g>
	<path d="M66.052,66.37v6.813h-18.3h-6.25V33.769h7.376h16.667v6.813H48.878v9.46h12.669v6.644H48.878v9.685H66.052z"/>
</g>
<g>
	<path d="M24.65,17.261c0.89,1.019,0.804,2.507-0.241,3.42l-1.169,1.021l-3.162-3.621l1.169-1.021
		C22.292,16.147,23.778,16.263,24.65,17.261z M24.071,17.767c-0.601-0.688-1.567-0.855-2.359-0.165l-0.595,0.52l2.222,2.545
		l0.596-0.52C24.726,19.457,24.689,18.476,24.071,17.767z"/>
	<path d="M30.037,15.591l0.39,0.582l-1.923,1.286l-0.514,0.343l-2.671-3.995l0.628-0.419l1.758-1.175l0.389,0.582l-1.757,1.175
		l0.747,1.119l1.353-0.904l0.382,0.571l-1.353,0.904l0.763,1.142L30.037,15.591z"/>
	<path d="M33.197,10.271l-0.355,0.543c-0.398-0.252-0.785-0.333-1.183-0.13c-0.398,0.203-0.562,0.578-0.399,0.896
		c0.152,0.3,0.436,0.387,0.923,0.331l0.356-0.042c1.009-0.121,1.63,0.025,1.957,0.668c0.401,0.789-0.127,1.612-0.854,1.983
		c-0.747,0.38-1.574,0.238-2.065-0.274l0.389-0.537c0.353,0.313,0.845,0.464,1.365,0.199c0.428-0.218,0.668-0.625,0.472-1.01
		c-0.209-0.41-0.568-0.435-1.15-0.37l-0.351,0.039c-0.764,0.088-1.381-0.005-1.721-0.672c-0.33-0.649,0.015-1.425,0.773-1.811
		C32.058,9.727,32.771,9.934,33.197,10.271z"/>
	<path d="M37.79,12.564l-0.703,0.275l-1.752-4.476l0.703-0.275L37.79,12.564z"/>
	<path d="M42.241,11.207c-1.274,0.34-2.651-0.345-3.027-1.752c-0.375-1.407,0.505-2.694,1.753-3.027
		c0.598-0.159,1.188-0.104,1.693,0.139L42.35,7.189c-0.352-0.148-0.768-0.187-1.152-0.083c-0.902,0.241-1.492,1.151-1.227,2.147
		s1.203,1.499,2.086,1.264c0.737-0.196,1.191-0.68,1.116-1.521l-1.241,0.331l-0.168-0.63l1.918-0.512
		C44.233,9.666,43.469,10.879,42.241,11.207z"/>
	<path d="M49.866,4.992L50.4,9.766L49.827,9.83L46.78,6.725l0.38,3.403l-0.75,0.084l-0.534-4.774l0.58-0.065l3.041,3.113
		l-0.381-3.41L49.866,4.992z"/>
	<path d="M58.972,10.053l-1.051-1.915l-1.403,1.668l-0.889-0.089l1.913-2.273l-1.378-2.507l0.889,0.089l0.999,1.813l1.325-1.58
		l0.889,0.089l-1.835,2.184l1.43,2.609L58.972,10.053z"/>
	<path d="M67.194,12.021c-1.229-0.396-2.047-1.727-1.6-3.111c0.446-1.385,1.888-1.987,3.115-1.591
		c0.588,0.189,1.054,0.556,1.347,1.033l-0.598,0.355c-0.216-0.314-0.544-0.572-0.922-0.694c-0.889-0.287-1.883,0.157-2.198,1.137
		c-0.315,0.98,0.231,1.92,1.12,2.207c0.385,0.124,0.816,0.104,1.18-0.038l0.275,0.644C68.387,12.188,67.788,12.212,67.194,12.021z"
		/>
	<path d="M75.846,13.087c-0.641,1.307-2.148,1.699-3.307,1.131c-1.159-0.568-1.772-2-1.132-3.307c0.641-1.307,2.147-1.7,3.307-1.132
		S76.486,11.78,75.846,13.087z M75.143,12.742c0.453-0.924,0.053-1.932-0.743-2.321c-0.795-0.39-1.836-0.09-2.289,0.835
		c-0.454,0.925-0.053,1.932,0.742,2.321C73.648,13.967,74.689,13.667,75.143,12.742z"/>
	<path d="M81.254,16.644c-0.77,1.112-2.233,1.394-3.374,0.604l-1.275-0.883l2.734-3.952l1.275,0.883
		C81.755,14.085,82.008,15.554,81.254,16.644z M80.622,16.206c0.52-0.751,0.444-1.729-0.419-2.327l-0.649-0.449l-1.922,2.777
		l0.649,0.449C79.145,17.254,80.087,16.979,80.622,16.206z"/>
	<path d="M84.195,21.46l-0.47,0.52l-1.718-1.553l-0.459-0.415l3.226-3.567l0.561,0.507l1.57,1.419l-0.471,0.52l-1.569-1.419
		l-0.903,0.999l1.208,1.092l-0.461,0.51l-1.208-1.092L82.579,20L84.195,21.46z"/>
	<path d="M93.111,33.641l-0.617,0.333l-1.1-2.037l-0.294-0.544l4.229-2.286l0.359,0.665l1.006,1.861l-0.617,0.333l-1.005-1.861
		l-1.185,0.64l0.773,1.432l-0.604,0.327l-0.774-1.432l-1.208,0.653L93.111,33.641z"/>
	<path d="M94.428,38.541l1.149-1.662l-0.029-0.077l-0.312-0.799l-1.56,0.607l-0.273-0.703l4.476-1.741l0.584,1.502
		c0.391,1.004,0.016,1.856-0.848,2.192c-0.626,0.244-1.232,0.104-1.663-0.376l-1.23,1.811L94.428,38.541z M95.851,35.764
		l0.299,0.767c0.221,0.569,0.636,0.842,1.192,0.625s0.678-0.698,0.457-1.267L97.5,35.123L95.851,35.764z"/>
	<path d="M95.504,41.998l-0.203-0.729l4.636-1.292l0.203,0.729L95.504,41.998z"/>
	<path d="M96.408,46.602c-0.212-1.273,0.595-2.613,2.031-2.852s2.635,0.766,2.847,2.039c0.102,0.61-0.01,1.192-0.299,1.672
		l-0.591-0.368c0.181-0.336,0.259-0.746,0.193-1.139c-0.154-0.921-1.005-1.601-2.021-1.432s-1.602,1.088-1.447,2.01
		c0.066,0.4,0.282,0.774,0.575,1.032l-0.445,0.541C96.807,47.74,96.511,47.218,96.408,46.602z"/>
	<path d="M101.111,54.288l-1.38-0.043l-0.056,1.772l-0.646-0.021l0.056-1.771l-2.095-0.065l0.024-0.776l4.807,0.149l-0.091,2.926
		l-0.688-0.021L101.111,54.288z"/>
	<path d="M100.955,62.613l-3.028-0.47c-1.161-0.18-1.704-1.078-1.552-2.055c0.151-0.979,0.939-1.67,2.101-1.49l3.029,0.471
		l-0.116,0.746l-3.028-0.469c-0.809-0.126-1.197,0.321-1.279,0.852c-0.082,0.529,0.153,1.073,0.961,1.198l3.028,0.47L100.955,62.613
		z"/>
	<path d="M99.118,69.391l-4.593-1.4l0.168-0.551l4.056-1.568l-3.274-0.997l0.22-0.722l4.593,1.399l-0.17,0.558l-4.06,1.56
		l3.28,0.999L99.118,69.391z"/>
	<path d="M92.637,72.225c0.568-1.189,1.982-1.791,3.296-1.164s1.721,2.131,1.164,3.296c-0.266,0.558-0.691,0.971-1.203,1.198
		l-0.272-0.641c0.341-0.172,0.64-0.463,0.811-0.822c0.403-0.842,0.093-1.881-0.837-2.325c-0.929-0.444-1.92-0.058-2.313,0.767
		c-0.329,0.688-0.256,1.346,0.432,1.834l0.554-1.158l0.589,0.281L94,75.282C92.516,74.74,92.089,73.372,92.637,72.225z"/>
	<path d="M83.427,88.303c-0.929-0.986-0.898-2.479,0.112-3.431l1.132-1.065l3.3,3.503l-1.131,1.065
		C85.829,89.329,84.337,89.269,83.427,88.303z M83.987,87.775c0.628,0.666,1.602,0.797,2.367,0.075l0.575-0.541l-2.319-2.463
		l-0.576,0.542C83.269,86.11,83.342,87.089,83.987,87.775z"/>
	<path d="M78.118,90.17l-0.411-0.566l1.872-1.357l0.5-0.363l2.819,3.889l-0.61,0.443l-1.711,1.24l-0.411-0.566l1.711-1.24
		l-0.79-1.09l-1.316,0.955l-0.402-0.555l1.316-0.955l-0.806-1.111L78.118,90.17z"/>
	<path d="M75.152,95.631l0.334-0.558c0.408,0.236,0.799,0.301,1.188,0.083c0.39-0.219,0.538-0.601,0.363-0.912
		c-0.164-0.295-0.451-0.37-0.937-0.295l-0.354,0.057c-1.005,0.16-1.632,0.039-1.984-0.591c-0.433-0.773,0.063-1.618,0.776-2.018
		c0.732-0.409,1.564-0.301,2.077,0.192l-0.368,0.553c-0.365-0.301-0.863-0.431-1.373-0.146c-0.42,0.235-0.644,0.651-0.432,1.029
		c0.225,0.401,0.585,0.413,1.166,0.324l0.348-0.054c0.761-0.118,1.383-0.049,1.748,0.605c0.356,0.635,0.042,1.426-0.701,1.842
		C76.314,96.13,75.592,95.952,75.152,95.631z"/>
	<path d="M70.479,93.505l0.691-0.302l1.922,4.4l-0.691,0.303L70.479,93.505z"/>
	<path d="M66.073,95.042c1.26-0.391,2.662,0.24,3.093,1.631s-0.397,2.711-1.632,3.093c-0.59,0.183-1.183,0.15-1.697-0.071
		l0.286-0.635c0.357,0.133,0.774,0.156,1.154,0.038c0.893-0.276,1.445-1.209,1.141-2.193s-1.261-1.45-2.134-1.181
		c-0.729,0.226-1.162,0.727-1.055,1.563l1.227-0.379l0.193,0.623l-1.896,0.587C64.144,96.659,64.859,95.417,66.073,95.042z"/>
	<path d="M58.7,101.555l-0.727-4.753l0.57-0.087l3.173,2.982l-0.518-3.389l0.747-0.114l0.727,4.753l-0.577,0.089l-3.167-2.991
		l0.519,3.396L58.7,101.555z"/>
	<path d="M49.422,96.84l1.125,1.869l1.334-1.721l0.891,0.053l-1.818,2.346l1.476,2.447l-0.891-0.054l-1.069-1.77l-1.26,1.63
		l-0.891-0.055l1.744-2.253l-1.531-2.547L49.422,96.84z"/>
	<path d="M41.12,95.191c1.242,0.347,2.112,1.645,1.721,3.046c-0.392,1.4-1.808,2.059-3.05,1.711
		c-0.595-0.166-1.074-0.514-1.387-0.979l0.583-0.378c0.229,0.306,0.566,0.55,0.949,0.657c0.898,0.251,1.874-0.232,2.151-1.223
		c0.276-0.991-0.308-1.909-1.206-2.16c-0.39-0.109-0.82-0.072-1.178,0.084l-0.3-0.633C39.922,95.07,40.519,95.023,41.12,95.191z"/>
	<path d="M32.427,94.448c0.593-1.328,2.084-1.777,3.264-1.252c1.179,0.525,1.844,1.934,1.252,3.264
		c-0.592,1.329-2.084,1.777-3.263,1.252S31.835,95.778,32.427,94.448z M33.143,94.766c-0.419,0.941,0.019,1.933,0.827,2.293
		c0.81,0.36,1.839,0.022,2.258-0.918c0.419-0.941-0.019-1.933-0.828-2.293C34.591,93.488,33.561,93.827,33.143,94.766z"/>
	<path d="M26.877,91.1c0.728-1.139,2.179-1.474,3.347-0.729l1.308,0.835l-2.585,4.048l-1.308-0.834
		C26.471,93.674,26.164,92.217,26.877,91.1z M27.524,91.514c-0.491,0.77-0.38,1.743,0.505,2.309l0.665,0.424l1.816-2.845
		l-0.665-0.425C28.961,90.413,28.03,90.721,27.524,91.514z"/>
	<path d="M23.776,86.43l0.448-0.537l1.773,1.48l0.475,0.396l-3.076,3.685l-0.579-0.483l-1.622-1.354l0.448-0.537l1.622,1.354
		l0.861-1.031l-1.248-1.042l0.439-0.526l1.248,1.041l0.879-1.053L23.776,86.43z"/>
	<path d="M14.38,74.584l0.602-0.355l1.178,1.99l0.314,0.531l-4.133,2.445l-0.385-0.649l-1.076-1.818l0.603-0.356l1.076,1.818
		l1.157-0.685l-0.828-1.399l0.591-0.35l0.828,1.399l1.181-0.698L14.38,74.584z"/>
	<path d="M12.874,69.746l-1.085,1.71l0.033,0.076l0.343,0.787l1.538-0.67l0.302,0.693l-4.411,1.922l-0.646-1.48
		c-0.431-0.989-0.09-1.857,0.761-2.229c0.618-0.27,1.23-0.154,1.681,0.311l1.16-1.863L12.874,69.746z M11.561,72.583l-0.33-0.756
		c-0.244-0.561-0.671-0.817-1.219-0.578c-0.549,0.238-0.651,0.726-0.407,1.287l0.33,0.756L11.561,72.583z"/>
	<path d="M11.665,66.323l0.23,0.721l-4.583,1.463l-0.229-0.721L11.665,66.323z"/>
	<path d="M10.589,61.779c0.261,1.265-0.495,2.635-1.922,2.929c-1.427,0.295-2.662-0.664-2.924-1.929
		c-0.125-0.605-0.035-1.192,0.235-1.683l0.604,0.345c-0.168,0.343-0.229,0.756-0.149,1.146c0.188,0.915,1.066,1.562,2.075,1.354
		c1.01-0.208,1.559-1.149,1.37-2.064c-0.082-0.397-0.312-0.764-0.615-1.01l0.425-0.558C10.146,60.657,10.462,61.167,10.589,61.779z"
		/>
	<path d="M5.598,54.264l1.381-0.021L6.95,52.472l0.646-0.01l0.028,1.771l2.094-0.032l0.012,0.776l-4.806,0.074l-0.046-2.925
		l0.687-0.011L5.598,54.264z"/>
	<path d="M5.434,45.938l3.042,0.354c1.166,0.136,1.742,1.012,1.628,1.994c-0.114,0.982-0.876,1.703-2.042,1.567L5.02,49.498
		l0.087-0.75l3.042,0.354c0.812,0.094,1.184-0.367,1.245-0.899c0.063-0.532-0.193-1.066-1.006-1.161l-3.042-0.354L5.434,45.938z"/>
	<path d="M6.993,39.093l4.646,1.218l-0.146,0.558l-3.992,1.727l3.313,0.868l-0.191,0.73l-4.646-1.217l0.147-0.564l3.998-1.719
		l-3.319-0.87L6.993,39.093z"/>
	<path d="M13.362,36.019c-0.521,1.21-1.91,1.867-3.246,1.291c-1.336-0.576-1.802-2.062-1.291-3.246
		c0.244-0.567,0.653-0.996,1.155-1.243l0.297,0.629c-0.333,0.185-0.62,0.487-0.778,0.853c-0.369,0.857-0.019,1.882,0.927,2.29
		s1.92-0.017,2.281-0.855c0.302-0.699,0.202-1.354-0.503-1.816l-0.508,1.179l-0.599-0.258l0.785-1.821
		C13.386,33.502,13.864,34.853,13.362,36.019z"/>
</g>
</svg>
